<svg width="24" height="24" viewBox="0 0 24 24" fill="none" xmlns="http://www.w3.org/2000/svg">
<path fill-rule="evenodd" clip-rule="evenodd" d="M11.9998 2.91504C12.3312 2.91503 12.5998 3.18366 12.5998 3.51503L12.6 11.4005L20.4848 11.4006C20.8162 11.4007 21.0848 11.6693 21.0848 12.0007C21.0848 12.332 20.8161 12.6007 20.4848 12.6006L12.6 12.6005L12.6002 20.4853C12.6002 20.8166 12.3315 21.0853 12.0002 21.0853C11.6688 21.0853 11.4002 20.8167 11.4002 20.4853L11.4 12.6005L3.51454 12.6003C3.18317 12.6003 2.91454 12.3317 2.91455 12.0003C2.91456 11.6689 3.18319 11.4003 3.51456 11.4003L11.4 11.4005L11.3998 3.51505C11.3998 3.18368 11.6684 2.91505 11.9998 2.91504Z" fill="#EDF9FF"/>
</svg>
