<svg width="24" height="24" viewBox="0 0 24 24" fill="none" xmlns="http://www.w3.org/2000/svg">
<path fill-rule="evenodd" clip-rule="evenodd" d="M5.09998 7.8001C5.09998 6.30893 6.30881 5.1001 7.79998 5.1001H19.2C20.6911 5.1001 21.9 6.30893 21.9 7.8001V19.2001C21.9 20.6913 20.6911 21.9001 19.2 21.9001H7.79998C6.30881 21.9001 5.09998 20.6913 5.09998 19.2001V7.8001ZM7.79998 6.9001C7.30292 6.9001 6.89998 7.30304 6.89998 7.8001V19.2001C6.89998 19.6972 7.30292 20.1001 7.79998 20.1001H19.2C19.697 20.1001 20.1 19.6972 20.1 19.2001V7.8001C20.1 7.30304 19.697 6.9001 19.2 6.9001H7.79998Z" fill="#BB8554"/>
<path d="M6.59998 2.1001H12.6C13.097 2.1001 13.5 2.50304 13.5 3.0001C13.5 3.49715 13.097 3.9001 12.6 3.9001H6.59998C5.10881 3.9001 3.89998 5.10893 3.89998 6.6001V12.6001C3.89998 13.0972 3.49703 13.5001 2.99998 13.5001C2.50292 13.5001 2.09998 13.0972 2.09998 12.6001V6.6001C2.09998 4.11482 4.11469 2.1001 6.59998 2.1001Z" fill="#BB8554"/>
</svg>
