<svg width="370" height="28" viewBox="0 0 370 28" fill="none" xmlns="http://www.w3.org/2000/svg">
<g clip-path="url(#clip0_4_220)">
<path d="M13.8428 11.9989C18.1934 2.99888 5.14157 -1.20112 1.18646 6.79888C-1.1866 11.5989 0.197688 16.9989 3.55953 20.5989C9.09667 26.5989 17.6001 26.5989 25.1148 26.1989C47.2634 24.7989 69.412 21.7989 91.3628 18.5989C102.833 16.9989 114.302 15.1989 125.772 13.3989C137.044 11.3989 153.26 5.59888 162.159 15.3989C162.95 16.1989 164.137 14.9989 163.346 14.1989C155.04 4.99888 141.988 8.79888 131.309 10.5989C115.489 13.3989 99.6686 15.9989 83.6504 18.1989C67.4345 20.3989 51.0208 22.3989 34.8049 23.9989C26.6969 24.7989 16.2159 26.9989 8.70116 22.9989C4.35055 20.5989 1.18646 16.3989 1.58198 11.3989C1.77973 9.79888 2.373 6.99888 3.75728 5.99888C8.1079 2.59888 15.4248 5.99888 12.854 11.7989C12.4585 12.1989 13.4473 12.7989 13.8428 11.9989Z" fill="#F55E3E"/>
<path d="M12.2607 15.8C13.4473 15.8 13.4473 14 12.2607 14C11.0742 14 11.0742 15.8 12.2607 15.8Z" fill="#F55E3E"/>
<path d="M164.136 18.1991C165.521 18.1991 165.521 16.1991 164.136 16.1991C162.95 16.1991 162.95 18.1991 164.136 18.1991Z" fill="#F55E3E"/>
<path d="M206.852 13.9982C206.061 14.7982 207.445 16.1982 208.038 15.1982C216.937 5.1982 233.153 11.1982 244.425 13.1982C255.697 15.1982 267.167 16.9982 278.637 18.5982C300.588 21.7982 322.736 24.5982 344.885 26.1982C352.399 26.7982 360.903 26.5982 366.44 20.5982C370 16.7982 371.186 11.3982 369.011 6.7982C365.451 -1.4018 352.993 2.7982 355.959 11.9982C356.157 12.7982 357.541 12.3982 357.343 11.5982C356.948 10.5982 356.75 9.3982 356.948 8.1982C357.937 2.9982 364.265 3.1982 367.231 6.3982C370.395 9.7982 367.824 16.9982 365.253 19.5982C358.925 26.3982 348.444 24.9982 339.941 24.1982C322.736 22.5982 305.729 20.5982 288.524 18.3982C272.902 16.1982 257.081 13.7982 241.261 10.9982C229.989 8.9982 215.553 4.1982 206.852 13.9982Z" fill="#F55E3E"/>
<path d="M357.739 14C356.552 14 356.552 15.8 357.739 15.8C358.926 15.8 358.926 14 357.739 14Z" fill="#F55E3E"/>
<path d="M205.863 18.1991C207.248 18.1991 207.248 16.1991 205.863 16.1991C204.479 16.1991 204.479 18.1991 205.863 18.1991Z" fill="#F55E3E"/>
<path d="M186.483 4.99994C183.121 1.99994 177.979 -5.67436e-05 175.409 4.99994C174.024 7.79994 174.815 10.1999 176.397 12.7999C179.562 17.7999 182.528 22.7999 185.494 27.7999C185.692 28.1999 186.087 28.1999 186.483 28.1999C186.681 28.1999 186.878 28.1999 186.878 27.9999C190.438 23.5999 193.602 18.7999 196.964 14.3999C198.942 11.5999 202.303 7.59994 201.117 3.79994C198.744 -3.60006 190.24 1.59994 186.483 4.99994Z" fill="#F55E3E"/>
<path d="M173.629 16.3991C173.432 16.3991 173.432 16.3991 173.629 16.3991C173.432 16.9991 173.629 17.5991 174.223 17.5991C174.816 17.5991 175.211 16.9991 175.014 16.3991C174.618 15.7991 173.827 15.7991 173.629 16.3991Z" fill="#F55E3E"/>
<path d="M171.651 12.9983C172.64 12.9983 172.64 11.3983 171.651 11.3983C170.662 11.5983 170.662 12.9983 171.651 12.9983Z" fill="#F55E3E"/>
<path d="M171.849 4.60144C170.86 4.60144 170.86 6.00144 171.849 6.00144C172.838 6.00144 172.838 4.60144 171.849 4.60144Z" fill="#F55E3E"/>
<path d="M169.081 9.60144C168.092 9.60144 168.092 11.0014 169.081 11.0014C169.872 11.2014 169.872 9.60144 169.081 9.60144Z" fill="#F55E3E"/>
<path d="M166.312 8.9991C166.51 7.5991 164.532 7.5991 164.73 8.9991C164.928 9.7991 166.114 9.7991 166.312 8.9991Z" fill="#F55E3E"/>
<path d="M167.697 16.7994C168.092 17.7994 169.674 17.3994 169.279 16.3994C169.081 15.3994 167.499 15.7994 167.697 16.7994Z" fill="#F55E3E"/>
<path d="M172.047 20.6C171.058 21 171.849 22.4 172.838 22C173.036 22 173.036 21.8 173.036 21.8C173.036 21.8 173.036 21.8 173.036 21.6C173.431 21 172.64 20.2 172.047 20.6Z" fill="#F55E3E"/>
<path d="M173.036 21.6005C173.233 21.6005 173.233 21.4005 173.036 21.6005Z" fill="#F55E3E"/>
<path d="M178.177 20.7983C178.573 20.1983 178.375 19.3983 177.584 19.3983C176.793 19.3983 176.595 20.1983 176.991 20.7983C177.386 21.1983 177.979 21.1983 178.177 20.7983Z" fill="#F55E3E"/>
<path d="M177.386 26.6C178.375 26.6 178.375 25 177.386 25C176.398 25 176.398 26.6 177.386 26.6Z" fill="#F55E3E"/>
<path d="M168.685 21.1991C167.499 21.1991 167.499 22.9991 168.685 22.9991C169.674 22.7991 169.674 21.1991 168.685 21.1991Z" fill="#F55E3E"/>
<path d="M194.591 25.8014C194.393 25.2014 193.602 25.2014 193.207 25.8014C192.811 26.4014 193.207 27.0014 193.998 27.0014C194.789 27.0014 194.987 26.4014 194.591 25.8014Z" fill="#F55E3E"/>
<path d="M197.557 20.4007C196.173 20.2007 196.173 22.2007 197.557 22.0007C198.348 21.8007 198.348 20.6007 197.557 20.4007Z" fill="#F55E3E"/>
<path d="M200.128 24.6C199.733 26 202.303 26 201.908 24.6C201.512 23.8 200.326 23.8 200.128 24.6Z" fill="#F55E3E"/>
<path d="M197.755 23C196.766 23 196.766 24.6 197.755 24.6C198.744 24.6 198.744 23 197.755 23Z" fill="#F55E3E"/>
<path d="M200.128 16.7999C199.535 17.3999 200.524 18.3999 201.117 17.9999C202.304 17.1999 200.919 15.7999 200.128 16.7999Z" fill="#F55E3E"/>
<path d="M204.479 20C203.49 20 203.49 21.6 204.479 21.6C205.665 21.6 205.665 20 204.479 20Z" fill="#F55E3E"/>
<path d="M200.919 12.0015C200.326 12.8015 201.314 13.6015 201.908 13.2015C203.094 12.2015 201.71 10.8015 200.919 12.0015Z" fill="#F55E3E"/>
<path d="M206.259 7.60144C205.072 7.60144 205.072 9.40144 206.259 9.40144C207.248 9.20144 207.248 7.60144 206.259 7.60144Z" fill="#F55E3E"/>
<path d="M204.083 3C203.095 3 203.095 4.6 204.083 4.6C205.072 4.6 205.072 3 204.083 3Z" fill="#F55E3E"/>
<path d="M210.807 5.39861C211.598 5.19861 211.598 3.99861 210.807 3.79861C209.225 3.39861 209.225 5.59861 210.807 5.39861Z" fill="#F55E3E"/>
</g>
<defs>
<clipPath id="clip0_4_220">
<rect width="370" height="28" fill="white"/>
</clipPath>
</defs>
</svg>
