<svg width="40" height="40" viewBox="0 0 40 40" fill="none" xmlns="http://www.w3.org/2000/svg">
<path d="M5.854 12.1055C5.854 12.1055 5.10497 17.5352 6.60305 23.714C8.10078 29.8921 11.003 34.3232 11.003 34.3232L12.0328 27.3649L5.854 12.1055Z" fill="#771C2B"/>
<path d="M10.5034 27.8325C10.5034 27.8325 10.6253 34.207 11.0029 34.3229C12.1263 34.6664 21.7523 32.1026 27.4789 29.5801C32.7212 27.271 34.8743 22.5899 34.2192 14.2583C29.2266 17.5037 10.5034 27.8325 10.5034 27.8325Z" fill="#8C2A25"/>
<path d="M18.617 12.2306C18.617 12.2306 17.9924 3.36831 10.0043 6.23898C0.380068 9.69805 10.5034 27.8328 10.5034 27.8328C10.5034 27.8328 31.3486 23.0897 33.7198 17.5976C36.0913 12.1055 30.8487 3.86779 18.617 12.2306Z" fill="#A93228"/>
<path d="M25.8935 22.6984C23.1049 22.0924 20.345 21.3703 17.5934 20.6173C19.6426 20.3394 21.8324 19.5108 23.3857 18.415C24.8644 17.3719 25.2061 14.3912 22.8313 14.1058C20.1575 13.7845 17.6551 17.681 16.2352 19.4398C16.2312 19.4448 16.2273 19.448 16.223 19.4527C16.0114 16.383 14.4441 10.6804 10.6283 13.1337C8.56547 14.46 10.643 17.4924 12.8765 19.3128C10.9169 18.7696 8.95523 18.2332 6.98348 17.7359C6.73356 17.6728 6.52919 17.8535 6.50983 18.0969C6.31226 20.5277 6.20038 22.9612 6.32265 25.3988C6.34668 25.8792 7.09536 25.8818 7.07169 25.3988C6.95767 23.1201 7.04911 20.845 7.22229 18.5721C9.17719 19.0705 11.1242 19.5983 13.0687 20.1354C11.6473 20.3613 10.2547 20.8912 10.2575 21.8916C10.2597 22.9014 11.2648 23.2133 12.0984 23.0563C13.3627 22.8182 14.2939 21.811 15.4026 21.2333C15.2904 22.3915 15.4417 23.952 16.706 24.0294C18.251 24.1237 17.9642 22.423 17.3736 21.3222C18.1797 21.5431 18.9846 21.764 19.7921 21.9802C20.8015 22.2491 21.813 22.5066 22.8263 22.7576C23.8733 23.0172 25.4205 22.882 25.3205 24.2151C25.1645 26.2887 25.2538 28.3766 25.139 30.4534C25.1129 30.9361 25.8619 30.9336 25.8881 30.4534C26.024 27.9883 25.9322 25.5171 26.1688 23.0577C26.1832 22.9014 26.0437 22.7303 25.8935 22.6984ZM23.4326 15.3432C25.6382 17.6731 19.7688 19.4491 17.0115 19.8722C17.5203 19.2519 17.9807 18.4824 18.2675 18.1471C19.2331 17.0177 21.8499 13.6715 23.4326 15.3432ZM10.6211 14.3829C10.832 13.0889 12.5097 13.3919 13.2042 13.7035C14.1455 14.1258 14.631 15.1531 14.9608 16.0535C15.4012 17.2554 15.5152 18.5878 15.5048 19.8708C14.8723 19.9127 14.2114 19.2508 13.6004 18.7653C12.4641 17.8635 10.3612 15.9739 10.6211 14.3829ZM11.0453 22.0802C10.6157 21.465 13.362 20.945 14.8009 20.8149C13.5287 21.6478 11.6757 22.9828 11.0453 22.0802ZM16.261 21.0766C16.5557 21.3133 16.74 21.6241 16.9132 21.9558C17.0032 22.1433 17.0696 22.3395 17.1126 22.5431C17.2169 22.949 16.7694 23.6823 16.361 23.0434C16.0344 22.5328 16.0727 21.6467 16.1803 20.9967C16.1828 20.9974 16.1857 20.9988 16.1886 20.9995C16.2079 21.0261 16.2305 21.0526 16.261 21.0766Z" fill="white"/>
</svg>
