<svg width="40" height="40" viewBox="0 0 40 40" fill="none" xmlns="http://www.w3.org/2000/svg">
<path d="M28.6637 8.69594C27.8264 8.26469 5.52843 13.6278 5.66739 14.4479C5.80636 15.2686 9.29846 31.895 10.0099 32.112C10.7219 32.3291 32.7872 26.5657 33.0871 25.8399C33.3778 25.1336 29.4028 9.07715 28.6637 8.69594Z" fill="#3E4370"/>
<path d="M33.0609 8.15807C32.3192 7.57924 9.41309 8.71522 9.39748 9.54712C9.38186 10.379 9.73056 27.3646 10.3897 27.7098C11.0492 28.0553 33.8007 26.4826 34.2294 25.8247C34.6463 25.1847 33.7178 8.66964 33.0609 8.15807Z" fill="white"/>
<path d="M21.4646 11.156C21.7237 15.4146 21.726 19.6847 21.9676 23.945C21.9915 24.3699 22.657 24.3995 22.6331 23.9708C22.3912 19.7106 22.3883 15.4404 22.1298 11.1815C22.1043 10.7575 21.4388 10.7276 21.4646 11.156Z" fill="#3E4370"/>
<path d="M28.9869 11.8925C29.408 11.853 29.4395 11.1874 29.0127 11.2273C27.4949 11.3698 25.9681 11.3519 24.4497 11.4944C24.0293 11.5336 23.998 12.1994 24.4245 12.1596C25.9423 12.0168 27.4688 12.035 28.9869 11.8925Z" fill="#3E4370"/>
<path d="M31.4593 13.9866C31.8839 13.962 31.9139 13.2965 31.4855 13.3214C29.1969 13.454 26.9122 13.5056 24.6208 13.527C24.1928 13.5311 24.1657 14.196 24.5953 14.1922C26.8864 14.1711 29.1708 14.1192 31.4593 13.9866Z" fill="#3E4370"/>
<path d="M31.4931 15.9868C31.9189 15.9668 31.9476 15.3016 31.5189 15.3216C29.2208 15.4297 26.9227 15.5409 24.623 15.6091C24.1966 15.6216 24.1679 16.2868 24.5969 16.2743C26.8966 16.2061 29.1947 16.0946 31.4931 15.9868Z" fill="#3E4370"/>
<path d="M31.5127 18.3329C31.9379 18.3109 31.9678 17.6454 31.5388 17.6677C29.2809 17.7844 27.0198 17.7994 24.7589 17.8351C24.3312 17.8421 24.3032 18.507 24.7331 18.5003C26.9936 18.4642 29.2547 18.4493 31.5127 18.3329Z" fill="#3E4370"/>
<path d="M31.6194 19.878C29.3765 19.8509 27.1374 20.0444 24.8944 20.061C24.4667 20.0641 24.4392 20.7293 24.8689 20.7262C27.1112 20.7096 29.35 20.5161 31.5939 20.5432C32.0223 20.5483 32.0488 19.8828 31.6194 19.878Z" fill="#3E4370"/>
<path d="M27.1245 21.8386C26.4414 21.9384 25.7338 21.9358 25.0447 21.9126C24.6163 21.8979 24.5902 22.5631 25.0196 22.5778C25.7686 22.6033 26.5336 22.5956 27.2769 22.4869C27.7014 22.4248 27.5462 21.7768 27.1245 21.8386Z" fill="#3E4370"/>
<path d="M28.4637 21.7956C28.0343 21.779 28.0085 22.4442 28.4375 22.4608C28.8669 22.4777 28.8927 21.8125 28.4637 21.7956Z" fill="#3E4370"/>
<path d="M20.0597 16.5404C19.1417 14.1467 16.8226 15.7289 16.3343 16.4868C15.3542 14.8801 13.1909 14.5263 12.3794 16.7157C11.4806 19.1413 16.245 22.2512 16.3703 22.2423C16.4675 22.2458 20.9353 18.8235 20.0597 16.5404Z" fill="#B74437"/>
</svg>
