<svg width="40" height="40" viewBox="0 0 40 40" fill="none" xmlns="http://www.w3.org/2000/svg">
<path d="M17.91 13.9241C17.9141 13.9124 17.9141 13.9011 17.9169 13.8897C17.9261 13.855 17.9387 13.8234 17.9387 13.7821C17.9384 11.7161 17.9397 9.64987 17.8881 7.58457C17.8828 7.36803 17.7085 7.17769 17.4846 7.18148C16.4057 7.20074 15.3301 7.27618 14.2531 7.33268C14.0289 7.34436 13.8553 7.50692 13.8492 7.73576C13.7645 10.9762 13.657 14.2192 13.6475 17.461C13.6465 17.8053 14.0925 18.0039 14.337 17.7457C15.498 16.5197 16.6594 15.2934 17.8208 14.0674C17.8265 14.0614 17.8274 14.0548 17.8325 14.0485C17.8657 14.0137 17.8919 13.973 17.91 13.9241Z" fill="#B74437"/>
<path d="M32.1931 18.9815C31.9413 18.4174 23.4422 7.11397 22.1632 7.11397C20.6147 7.11397 11.7962 18.1321 11.3771 19.211C11.113 19.8912 10.9245 32.2256 11.4884 32.5548C12.0527 32.8847 30.8217 32.986 32.3404 32.67C32.997 32.5337 32.491 19.6478 32.1931 18.9815Z" fill="#B74437"/>
<path d="M24.1704 15.0896C22.5979 13.9756 21.971 16.0365 21.971 16.0365C21.971 16.0365 21.9669 16.0422 21.9603 16.0523C21.9536 16.0422 21.9495 16.0365 21.9495 16.0365C21.9495 16.0365 21.3334 13.9905 19.7501 15.0896C18.262 16.1224 20.3643 18.3174 21.9599 19.0497C23.5562 18.3177 25.6586 16.1445 24.1704 15.0896Z" fill="white"/>
<path d="M32.4208 21.5402C32.3455 20.1251 32.2633 19.139 32.1927 18.9815C31.941 18.4174 23.4419 7.11397 22.1628 7.11397C20.6143 7.11397 11.7958 18.1321 11.3768 19.211C11.3186 19.3606 11.2645 20.1986 11.2208 21.4186C15.5437 15.9926 20.595 10.1234 22.1505 8.97063C23.5988 10.1313 28.6662 16.3247 32.3091 21.4133C32.3426 21.46 32.3819 21.4998 32.4208 21.5402Z" fill="#A93228"/>
<path d="M10.3323 21.2387C10.0888 21.2387 9.84368 21.1595 9.63873 20.9966C9.1564 20.614 9.07606 19.9136 9.4594 19.4319C9.48565 19.3991 12.094 16.127 14.8485 12.8973C20.731 6 21.5252 6 22.1634 6C22.8501 6 23.6281 6 28.8385 12.7303C31.2609 15.8597 34.1027 19.4676 34.1251 19.4994C34.4835 19.9994 34.3677 20.6954 33.8661 21.0528C33.3645 21.4104 32.6677 21.2946 32.3094 20.7942C28.6665 15.7056 23.599 9.51225 22.1508 8.3516C20.5934 9.50562 15.5326 15.3865 11.2065 20.8176C10.9864 21.0947 10.6609 21.2387 10.3323 21.2387Z" fill="#771C2B"/>
<path d="M25.5714 32.8616L25.5211 25.0224C25.5211 23.0578 23.9251 21.465 21.9563 21.465C19.9874 21.465 18.3915 23.0578 18.3915 25.0224V32.8348C20.6548 32.9358 22.9987 32.9014 25.5714 32.8616Z" fill="#A93228"/>
<path d="M8.61655 27.2864C8.50205 27.49 8.7051 33.9192 8.8449 33.9757C8.94231 34.0149 9.65142 34.0158 9.92658 33.9094C9.99521 33.727 9.73902 27.6788 9.74756 27.1905C9.75041 27.0377 8.71744 27.1068 8.61655 27.2864Z" fill="#292D57"/>
<path d="M12.3618 25.493C12.1518 25.3295 5.67122 25.6502 5.66679 25.8851C5.66204 26.1202 5.76104 30.9162 5.94733 31.0138C6.13425 31.1113 12.5712 30.6672 12.6923 30.4816C12.8103 30.3007 12.5475 25.6373 12.3618 25.493Z" fill="#3E4370"/>
<path d="M11.8377 25.9378C11.6625 25.8014 6.24806 26.0694 6.24427 26.2654C6.24047 26.4618 6.32302 30.4689 6.47863 30.5501C6.63456 30.6315 12.0123 30.2606 12.1135 30.1056C12.2125 29.9547 11.993 26.0584 11.8377 25.9378Z" fill="#292D57"/>
<path d="M10.3675 27.2168C9.47207 26.6417 9.17824 27.7945 9.17824 27.7945C9.17824 27.7945 9.17603 27.7976 9.17255 27.8036C9.16875 27.7979 9.16622 27.7948 9.16622 27.7948C9.16622 27.7948 8.77435 26.6815 7.92862 27.3279C7.13412 27.9349 8.34927 29.0927 9.24782 29.4564C10.1103 29.0126 11.2151 27.761 10.3675 27.2168Z" fill="#B74437"/>
<mask id="mask0_4_405" style="mask-type:luminance" maskUnits="userSpaceOnUse" x="18" y="21" width="8" height="12">
<path d="M25.5714 32.8616L25.5211 25.0224C25.5211 23.0578 23.9251 21.465 21.9563 21.465C19.9874 21.465 18.3915 23.0578 18.3915 25.0224V32.8348C20.6548 32.9358 22.9987 32.9014 25.5714 32.8616Z" fill="white"/>
</mask>
<g mask="url(#mask0_4_405)">
<path d="M22.2702 20.8153H21.7284V33.4366H22.2702V20.8153Z" fill="#771C2B"/>
</g>
<mask id="mask1_4_405" style="mask-type:luminance" maskUnits="userSpaceOnUse" x="18" y="21" width="8" height="12">
<path d="M25.5714 32.8616L25.5211 25.0224C25.5211 23.0578 23.9251 21.465 21.9563 21.465C19.9874 21.465 18.3915 23.0578 18.3915 25.0224V32.8348C20.6548 32.9358 22.9987 32.9014 25.5714 32.8616Z" fill="white"/>
</mask>
<g mask="url(#mask1_4_405)">
<path d="M24.5026 20.8723H24.0095V33.4936H24.5026V20.8723Z" fill="#771C2B"/>
</g>
<mask id="mask2_4_405" style="mask-type:luminance" maskUnits="userSpaceOnUse" x="18" y="21" width="8" height="12">
<path d="M25.5714 32.8616L25.5211 25.0224C25.5211 23.0578 23.9251 21.465 21.9563 21.465C19.9874 21.465 18.3915 23.0578 18.3915 25.0224V32.8348C20.6548 32.9358 22.9987 32.9014 25.5714 32.8616Z" fill="white"/>
</mask>
<g mask="url(#mask2_4_405)">
<path d="M19.348 20.8465V33.4675L19.8781 33.4366V20.8153L19.348 20.8465Z" fill="#771C2B"/>
</g>
</svg>
