<svg width="40" height="40" viewBox="0 0 40 40" fill="none" xmlns="http://www.w3.org/2000/svg">
<path d="M13.0866 14.5348C16.7946 13.6939 20.4952 16.026 21.3367 19.734C22.1776 23.4417 19.8451 27.1419 16.1375 27.9825C12.4292 28.8244 8.72858 26.4922 7.8877 22.7849C7.04615 19.077 9.37894 15.3753 13.0866 14.5348ZM12.6338 12.5374C7.8166 13.6299 4.79755 18.4205 5.89032 23.2377C6.98276 28.0536 11.7738 31.073 16.5906 29.9802C21.4078 28.8878 24.4262 24.0971 23.3344 19.2809C22.241 14.4637 17.4503 11.4446 12.6338 12.5374Z" fill="#3E4370"/>
<path d="M19.0518 15.9983C19.5797 16.4424 20.0422 16.9666 20.4202 17.5586C20.8576 16.9894 21.3671 16.5074 21.9283 16.115C21.5274 15.5455 21.0636 15.0299 20.5497 14.5741C20.0047 14.9793 19.5052 15.4599 19.0518 15.9983Z" fill="#292D57"/>
<path d="M21.4488 27.024C20.9014 26.5648 20.4422 26.0362 20.0753 25.459C19.6537 26.0084 19.1482 26.4937 18.574 26.8982C18.9644 27.4533 19.4189 27.9722 19.9445 28.4378C20.5019 28.0242 21.006 27.5492 21.4488 27.024Z" fill="#292D57"/>
<path d="M7.6792 15.6132C8.14878 16.0844 8.83973 16.3873 9.63901 16.4903C10.5419 15.5454 11.7196 14.8451 13.0864 14.5348C13.6338 14.4107 14.1798 14.3638 14.7182 14.3721C15.179 13.7272 15.3907 13.0134 15.28 12.3396C14.4143 12.2752 13.5248 12.3359 12.6339 12.5378C10.605 12.9976 8.89742 14.1152 7.6792 15.6132Z" fill="#292D57"/>
<path d="M29.4604 15.6959C32.5288 17.9405 33.1993 22.2629 30.9554 25.3316C28.7108 28.4003 24.3883 29.0708 21.3196 26.8269C18.2503 24.5823 17.5791 20.2595 19.8237 17.1908C22.0686 14.1221 26.3914 13.4513 29.4604 15.6959ZM30.6693 14.0426C26.6829 11.1266 21.0865 11.9949 18.1701 15.981C15.2551 19.9677 16.1228 25.5634 20.1098 28.4794C24.0972 31.3955 29.6925 30.5268 32.6083 26.5414C35.524 22.5537 34.656 16.9587 30.6693 14.0426Z" fill="#A93228"/>
<path d="M21.3187 26.8269C20.9581 26.5636 20.6345 26.2697 20.3416 25.9545C19.9217 26.4911 19.4206 26.9654 18.8538 27.3602C19.2311 27.7637 19.6467 28.1413 20.1092 28.4794C20.2273 28.5656 20.3507 28.6371 20.4704 28.7166C21.0219 28.2799 21.5156 27.7804 21.9459 27.2334C21.7326 27.11 21.5226 26.9765 21.3187 26.8269Z" fill="#771C2B"/>
<path d="M30.6692 14.0421C29.1253 12.9131 27.3403 12.3577 25.5636 12.3245C25.4033 12.9836 25.5525 13.7117 25.952 14.398C27.1793 14.4963 28.313 14.9051 29.3776 15.6836C29.8981 16.064 30.2235 16.342 30.6125 16.7673C31.4145 16.7398 32.2406 16.6201 32.7454 16.1884C32.1786 15.3368 31.5443 14.6821 30.6692 14.0421Z" fill="#771C2B"/>
<path d="M21.5082 26.9505C21.481 26.7328 20.6529 25.64 19.9998 25.5508C19.5745 26.0858 19.0701 26.556 18.4985 26.9478C18.7327 27.5522 19.4833 28.2344 20.0042 28.3934C20.5627 27.9704 21.0668 27.4854 21.5082 26.9505Z" fill="#3E4370"/>
<path d="M15.1927 11.4071C15.7354 12.9607 14.3759 14.8488 12.1569 15.6246C9.93743 16.4 7.69789 15.7695 7.15486 14.2158C6.61182 12.6619 7.97158 10.7738 10.1907 9.99837C12.4104 9.22289 14.6496 9.85347 15.1927 11.4071Z" fill="#DFA77B"/>
<path d="M14.3255 11.4154C14.7129 12.5239 13.5751 13.9307 11.7837 14.5562C9.99227 15.1821 8.22566 14.791 7.83826 13.6821C7.45119 12.5729 8.58925 11.1669 10.3807 10.541C12.1718 9.9151 13.9381 10.3065 14.3255 11.4154Z" fill="#CC8462"/>
<path d="M13.7775 11.606C14.0998 12.5274 13.1536 13.6963 11.665 14.2165C10.1765 14.7368 8.70837 14.4118 8.38638 13.4904C8.06438 12.5683 9.01058 11.3998 10.4991 10.8799C11.9874 10.3596 13.4555 10.6847 13.7775 11.606Z" fill="#B74437"/>
<path d="M10.3103 11.3978C10.0383 11.1979 8.58833 12.1119 8.67353 12.8742C8.75872 13.6366 10.789 11.7496 10.3103 11.3978Z" fill="#DFA77B"/>
<path d="M12.6878 11.0745C12.3195 10.893 11.7198 10.896 11.4562 11.2318C11.1255 11.653 11.852 12.2081 10.8229 12.8146C9.79386 13.4213 9.12472 13.0967 8.94225 13.5226C8.75979 13.9483 10.0132 14.451 11.5605 13.7765C13.1081 13.1017 13.8403 11.6416 12.6878 11.0745Z" fill="#A93228"/>
<path d="M9.73344 11.6084C9.57949 11.495 8.77215 12.0622 8.67354 12.6324C8.59874 13.0611 10.0051 11.8083 9.73344 11.6084Z" fill="white"/>
<path d="M13.0198 13.2345C13.329 12.936 13.4038 12.4543 12.7709 12.9065C12.1376 13.3593 12.1615 14.062 13.0198 13.2345Z" fill="white"/>
<path d="M33.3782 15.0191C32.6641 16.5006 30.3672 16.8753 28.2495 15.8543C26.132 14.8333 24.9943 12.804 25.7084 11.3212C26.4241 9.83831 28.7204 9.46466 30.8375 10.4857C32.9556 11.5067 34.0933 13.5359 33.3782 15.0191Z" fill="#DFA77B"/>
<path d="M32.7601 14.4109C32.2499 15.4685 30.4504 15.659 28.7422 14.8349C27.0326 14.0101 26.0599 12.4847 26.57 11.4268C27.0802 10.3689 28.879 10.1797 30.5886 11.0032C32.2975 11.8276 33.2696 13.353 32.7601 14.4109Z" fill="#CC8462"/>
<path d="M32.2367 14.1591C31.8124 15.0383 30.3171 15.1959 28.8967 14.511C27.4765 13.8261 26.6679 12.5579 27.0921 11.6791C27.5164 10.7997 29.0117 10.6417 30.4312 11.3266C31.852 12.0118 32.6603 13.2797 32.2367 14.1591Z" fill="#3E4370"/>
<path d="M29.9328 11.56C29.8815 11.2263 28.2091 10.8479 27.7311 11.447C27.2515 12.046 30.0213 12.147 29.9328 11.56Z" fill="#DFA77B"/>
<path d="M31.8427 13.0122C31.7102 12.6238 31.2839 12.2011 30.8603 12.2524C30.3287 12.3165 30.4498 13.2225 29.2929 12.9236C28.1368 12.6251 27.8929 11.9227 27.4629 12.0948C27.0333 12.2669 27.5635 13.5082 29.1346 14.1257C30.7064 14.7429 32.2566 14.2284 31.8427 13.0122Z" fill="#292D57"/>
<path d="M29.376 11.3009C29.3465 11.1121 28.3745 10.9424 27.9016 11.2755C27.5467 11.5257 29.4263 11.634 29.376 11.3009Z" fill="white"/>
<path d="M30.5494 14.7745C30.9794 14.7825 31.3735 14.4954 30.6054 14.3673C29.8376 14.2391 29.3573 14.7537 30.5494 14.7745Z" fill="white"/>
</svg>
