<svg width="40" height="40" viewBox="0 0 40 40" fill="none" xmlns="http://www.w3.org/2000/svg">
<path d="M31.4272 18.343C31.4265 18.3427 31.4256 18.342 31.4256 18.342C31.1973 15.1807 23.6749 9.42553 22.6511 9.35257C21.6058 9.27799 10.7257 13.311 10.2146 16.2335C10.0826 16.9686 7.98177 32.0709 8.51706 32.4703C9.05235 32.8697 29.4384 34.7044 29.9117 34.1824C30.3711 33.6742 31.6761 18.7181 31.4272 18.343Z" fill="white"/>
<path d="M23.5098 18.763C23.5098 18.763 22.3895 14.73 19.3647 16.1118C16.3399 17.4936 17.0863 20.5555 20.4104 24.4394C20.8957 24.0287 21.1943 24.1779 21.1943 24.1779L22.8001 25.7463L28.9249 20.8916C28.9249 20.8916 30.2693 19.6964 28.4391 17.6798C26.6095 15.6633 23.5098 18.763 23.5098 18.763Z" fill="#B74437"/>
<path d="M31.0788 18.6266C28.3752 20.9676 25.4189 23.0003 22.7544 25.3861C22.2426 24.8295 21.7367 24.2707 21.2441 23.7054C21.1569 23.6056 20.9916 23.5937 20.8818 23.6589C20.1809 24.0767 19.4771 24.498 18.7736 24.9212C15.8754 22.127 13.1738 19.1345 10.4893 16.1374C10.2316 15.8498 9.81064 16.2737 10.0667 16.5597C12.7182 19.5199 15.3879 22.4753 18.2451 25.2402C14.7955 27.3262 11.5301 29.3911 8.44175 31.9455C8.14441 32.1915 8.51278 32.5389 8.88987 32.5989C14.1246 33.4332 25.8812 34.354 29.6537 34.333C30.0366 34.331 30.1309 33.9837 29.9146 33.6631C27.9145 30.6974 25.609 28.4642 23.1595 25.8239C25.8282 23.4319 28.792 21.3951 31.5017 19.0489C31.7929 18.7964 31.3687 18.3758 31.0788 18.6266Z" fill="#DFA77B"/>
<path d="M20.6231 8.42956C19.3782 5.96847 17.0698 7.91591 16.6308 8.7805C15.4052 7.16851 13.0513 7.02678 12.4234 9.45914C11.727 12.1536 17.167 14.9595 17.3 14.9357C17.4043 14.9292 21.8099 10.777 20.6231 8.42956Z" fill="#8C2A25"/>
<path d="M31.3578 8.46837C31.457 6.55709 29.3952 6.93386 28.8328 7.30288C28.6504 5.90946 27.2822 5.0129 26.0654 6.26072C24.7162 7.64316 27.0255 11.2087 27.1133 11.2407C27.1785 11.2723 31.2633 10.2912 31.3578 8.46837Z" fill="#A93228"/>
</svg>
